<?xml version="1.0" encoding="utf-8"?>
<!-- Generator: Adobe Illustrator 22.0.0, SVG Export Plug-In . SVG Version: 6.00 Build 0)  -->
<svg version="1.1" xmlns="http://www.w3.org/2000/svg" xmlns:xlink="http://www.w3.org/1999/xlink" x="0px" y="0px"
	 viewBox="0 0 20 20" style="enable-background:new 0 0 20 20;" xml:space="preserve">
<style type="text/css">
	.st0{fill:#2D2D2D;}
</style>
<g id="Background">
</g>
<g id="Graphic_Elements">
	<g>
		<path class="st0" d="M15.5,6.8C15.5,6.7,15.5,6.7,15.5,6.8c-0.2-0.1-0.3-0.1-0.5-0.1c-0.5-0.1-2.2-1-2.5-2.4c0,0-0.1-0.4-0.1-0.5
			c0-0.1,0-0.1-0.1-0.1c0,0,0,0,0,0c-0.7,0-1.3,0-2,0c-0.1,0-0.1,0-0.1,0.1c0,2.8,0,5.7,0,8.5c0,0.1,0,0.2,0,0.3
			c-0.1,0.5-0.4,1-0.9,1.3c-0.4,0.3-0.9,0.3-1.3,0.2C8,14.1,7.8,14,7.7,14c0,0,0,0,0,0c0,0-0.1-0.1-0.2-0.1c-0.6-0.4-0.9-1-0.8-1.7
			c0.1-0.7,0.5-1.2,1.2-1.5c0.2-0.1,0.4-0.1,0.7-0.1c0.1,0,0.3,0,0.4,0.1c0,0,0.1,0,0.1-0.1c0,0,0,0,0-0.1c0-0.5,0-1.6,0-1.6
			c0-0.1,0-0.3,0-0.4c0,0,0,0-0.1-0.1c-0.3,0-0.5,0-0.8,0c-0.4,0-0.7,0.1-1.1,0.2c-0.6,0.2-1,0.5-1.5,0.9C5.3,9.8,5,10.2,4.8,10.7
			c-0.2,0.4-0.3,0.9-0.3,1.4c0,0.2,0,0.4,0,0.6c0,0.3,0.1,0.6,0.2,0.8c0.3,0.8,0.7,1.4,1.4,2c0.1,0.1,0.1,0.1,0.2,0.1c0,0,0,0,0,0
			c0,0,0.1,0.1,0.1,0.1c0.1,0.1,0.2,0.1,0.3,0.2c0.7,0.4,1.5,0.5,2.3,0.4c1-0.1,1.9-0.6,2.6-1.4c0.6-0.8,1-1.6,1-2.6
			c0-1.4,0-2.8,0-4.2c0,0,0-0.1,0-0.1c0,0,0.1,0,0.1,0c0.5,0.3,1.1,0.6,1.7,0.7c0.4,0.1,0.7,0.1,1.1,0.1c0.1,0,0.1,0,0.1-0.1
			C15.6,8.3,15.5,6.9,15.5,6.8z"/>
	</g>
</g>
</svg>
